<?xml version="1.0" standalone="no"?>
<!DOCTYPE svg PUBLIC "-//W3C//DTD SVG 20010904//EN"
 "http://www.w3.org/TR/2001/REC-SVG-20010904/DTD/svg10.dtd">
<svg version="1.0" xmlns="http://www.w3.org/2000/svg"
 width="260.000000pt" height="260.000000pt" viewBox="0 0 260.000000 260.000000"
 preserveAspectRatio="xMidYMid meet">
<metadata>
Created by potrace 1.14, written by Peter Selinger 2001-2017
</metadata>
<g transform="translate(0.000000,260.000000) scale(0.100000,-0.100000)"
fill="#000000" stroke="none">
<path d="M10 1970 c0 -19 462 -701 484 -715 17 -11 143 -42 246 -61 14 -3 43
-10 65 -16 22 -5 47 -11 55 -13 8 -2 68 -15 132 -30 65 -14 122 -24 127 -21 5
4 -6 38 -25 76 -19 39 -34 72 -34 74 0 2 -21 48 -46 103 -25 54 -63 135 -84
180 -21 45 -48 88 -61 96 -13 9 -78 36 -144 62 -66 25 -133 52 -150 59 -16 8
-97 39 -180 71 -82 31 -163 63 -180 70 -68 29 -187 75 -196 75 -5 0 -9 -5 -9
-10z"/>
<path d="M2115 1312 c-15 -3 -337 -226 -430 -297 -34 -26 -33 -26 -278 29 -88
20 -161 36 -163 36 -21 0 32 -109 59 -121 20 -9 411 -99 590 -135 l79 -17 68
49 c119 85 484 352 515 378 44 36 36 40 -107 51 -49 3 -96 8 -106 10 -10 2
-58 6 -108 10 -49 4 -91 8 -94 9 -3 2 -14 0 -25 -2z"/>
<path d="M767 1114 c-2 -3 32 -59 77 -126 69 -103 88 -125 131 -147 28 -15
104 -56 170 -90 66 -35 125 -67 130 -71 22 -17 55 -21 55 -8 0 14 -48 120
-120 263 l-45 90 -110 28 c-60 15 -123 30 -138 32 -15 3 -54 12 -87 19 -32 8
-61 12 -63 10z"/>
<path d="M1550 835 c0 -22 63 -135 78 -139 18 -6 217 -49 310 -67 82 -16 86
-12 57 45 -36 71 -51 84 -114 97 -31 7 -60 14 -66 15 -5 1 -21 4 -35 7 -14 3
-56 13 -95 22 -89 22 -135 28 -135 20z"/>
</g>
</svg>
